<svg width="109" height="20" viewBox="0 0 109 20" fill="none" xmlns="http://www.w3.org/2000/svg">
<path d="M0.306152 15L3.17285 1.43652H7.03223C8.69596 1.43652 10.0072 1.87256 10.9658 2.74463C11.9245 3.6167 12.4038 4.89079 12.4038 6.56689C12.4038 7.61833 12.2894 8.58317 12.0605 9.46143C11.8379 10.3397 11.5101 11.1221 11.0771 11.8086C10.6442 12.4951 10.1123 13.0765 9.48145 13.5527C8.85677 14.0228 8.14242 14.3815 7.33838 14.6289C6.53434 14.8763 5.64681 15 4.67578 15H0.306152ZM4.58301 11.9941H5.22314C5.63753 11.9941 6.02409 11.9137 6.38281 11.7529C6.74772 11.5921 7.07243 11.3602 7.35693 11.0571C7.64762 10.7479 7.89502 10.3799 8.09912 9.95312C8.30941 9.52018 8.46712 9.03467 8.57227 8.49658C8.68359 7.9585 8.73926 7.37712 8.73926 6.75244C8.73926 5.97933 8.57227 5.39486 8.23828 4.99902C7.9043 4.59701 7.43734 4.396 6.8374 4.396H6.17871L4.58301 11.9941ZM17.9424 15.1855C17.0579 15.1855 16.3065 15.0186 15.688 14.6846C15.0695 14.3506 14.5964 13.8743 14.2686 13.2559C13.9469 12.6312 13.7861 11.889 13.7861 11.0293C13.7861 10.1696 13.9067 9.33773 14.1479 8.53369C14.3953 7.72965 14.7664 7.00911 15.2612 6.37207C15.7622 5.73503 16.39 5.23096 17.1445 4.85986C17.8991 4.48877 18.7866 4.30322 19.8071 4.30322C20.9884 4.30322 21.9131 4.56917 22.5811 5.10107C23.2552 5.63298 23.5923 6.34115 23.5923 7.22559C23.5923 7.80697 23.481 8.33577 23.2583 8.81201C23.0356 9.28206 22.6924 9.68717 22.2285 10.0273C21.7708 10.3675 21.1864 10.6304 20.4751 10.8159C19.7638 10.9953 18.9196 11.085 17.9424 11.085H17.395C17.395 11.1097 17.395 11.1344 17.395 11.1592C17.395 11.1777 17.395 11.2025 17.395 11.2334C17.395 11.7035 17.5218 12.0498 17.7754 12.2725C18.029 12.4951 18.4093 12.6064 18.9165 12.6064C19.4484 12.6064 19.9525 12.526 20.4287 12.3652C20.9049 12.2044 21.4152 11.9818 21.9595 11.6973V14.2393C21.3966 14.5238 20.8153 14.7526 20.2153 14.9258C19.6154 15.099 18.8577 15.1855 17.9424 15.1855ZM17.7568 8.83984H18.0259C18.564 8.83984 18.9907 8.76872 19.3062 8.62646C19.6216 8.48421 19.8473 8.30485 19.9834 8.08838C20.1195 7.87191 20.1875 7.65544 20.1875 7.43896C20.1875 7.24105 20.1257 7.07406 20.002 6.93799C19.8783 6.80192 19.6803 6.73389 19.4082 6.73389C19.1299 6.73389 18.8732 6.84212 18.6382 7.05859C18.4032 7.27507 18.2083 7.5472 18.0537 7.875C17.8991 8.19661 17.8001 8.51823 17.7568 8.83984ZM28.9453 15.1855C28.0609 15.1855 27.3094 15.0186 26.6909 14.6846C26.0724 14.3506 25.5993 13.8743 25.2715 13.2559C24.9499 12.6312 24.7891 11.889 24.7891 11.0293C24.7891 10.1696 24.9097 9.33773 25.1509 8.53369C25.3983 7.72965 25.7694 7.00911 26.2642 6.37207C26.7651 5.73503 27.3929 5.23096 28.1475 4.85986C28.902 4.48877 29.7896 4.30322 30.8101 4.30322C31.9914 4.30322 32.916 4.56917 33.584 5.10107C34.2581 5.63298 34.5952 6.34115 34.5952 7.22559C34.5952 7.80697 34.4839 8.33577 34.2612 8.81201C34.0386 9.28206 33.6953 9.68717 33.2314 10.0273C32.7738 10.3675 32.1893 10.6304 31.478 10.8159C30.7668 10.9953 29.9225 11.085 28.9453 11.085H28.3979C28.3979 11.1097 28.3979 11.1344 28.3979 11.1592C28.3979 11.1777 28.3979 11.2025 28.3979 11.2334C28.3979 11.7035 28.5247 12.0498 28.7783 12.2725C29.0319 12.4951 29.4123 12.6064 29.9194 12.6064C30.4513 12.6064 30.9554 12.526 31.4316 12.3652C31.9079 12.2044 32.4181 11.9818 32.9624 11.6973V14.2393C32.3996 14.5238 31.8182 14.7526 31.2183 14.9258C30.6183 15.099 29.8607 15.1855 28.9453 15.1855ZM28.7598 8.83984H29.0288C29.5669 8.83984 29.9937 8.76872 30.3091 8.62646C30.6245 8.48421 30.8503 8.30485 30.9863 8.08838C31.1224 7.87191 31.1904 7.65544 31.1904 7.43896C31.1904 7.24105 31.1286 7.07406 31.0049 6.93799C30.8812 6.80192 30.6833 6.73389 30.4111 6.73389C30.1328 6.73389 29.8761 6.84212 29.6411 7.05859C29.4061 7.27507 29.2113 7.5472 29.0566 7.875C28.902 8.19661 28.8031 8.51823 28.7598 8.83984ZM34.252 19.5645L37.4434 4.48877H40.3101L40.1987 5.66699H40.2729C40.4647 5.37012 40.6781 5.11963 40.9131 4.91553C41.1481 4.71143 41.411 4.5599 41.7017 4.46094C41.9924 4.35579 42.314 4.30322 42.6665 4.30322C43.2974 4.30322 43.8447 4.45475 44.3086 4.75781C44.7725 5.06087 45.1312 5.50309 45.3848 6.08447C45.6383 6.65967 45.7651 7.35856 45.7651 8.18115C45.7651 8.87386 45.694 9.56038 45.5518 10.2407C45.4095 10.9149 45.2054 11.5519 44.9395 12.1519C44.6735 12.7456 44.3457 13.2713 43.9561 13.729C43.5726 14.1805 43.1366 14.5361 42.6479 14.7959C42.1655 15.0557 41.6336 15.1855 41.0522 15.1855C40.7368 15.1855 40.4461 15.1299 40.1802 15.0186C39.9204 14.9072 39.6854 14.7526 39.4751 14.5547C39.2648 14.3506 39.0762 14.1125 38.9092 13.8403H38.835C38.7917 14.3351 38.736 14.8268 38.668 15.3154C38.6061 15.8102 38.4886 16.4658 38.3154 17.2822L37.8423 19.5645H34.252ZM40.3286 12.3003C40.5265 12.3003 40.7152 12.2292 40.8945 12.0869C41.0739 11.9385 41.2347 11.7406 41.377 11.4932C41.5254 11.2396 41.6522 10.952 41.7573 10.6304C41.8687 10.3088 41.9521 9.96859 42.0078 9.60986C42.0697 9.24495 42.1006 8.88314 42.1006 8.52441C42.1006 8.09147 42.0326 7.76058 41.8965 7.53174C41.7666 7.3029 41.5687 7.18848 41.3027 7.18848C41.1172 7.18848 40.944 7.24414 40.7832 7.35547C40.6286 7.4668 40.4832 7.61833 40.3472 7.81006C40.2173 8.00179 40.0998 8.22445 39.9946 8.47803C39.8895 8.72542 39.7998 8.99137 39.7256 9.27588C39.6576 9.56038 39.605 9.84798 39.5679 10.1387C39.5308 10.4232 39.5122 10.7015 39.5122 10.9736C39.5122 11.3695 39.5833 11.6911 39.7256 11.9385C39.874 12.1797 40.075 12.3003 40.3286 12.3003ZM51.3779 15.1855C50.5182 15.1855 49.7853 15.0278 49.1792 14.7124C48.5793 14.397 48.1216 13.9393 47.8062 13.3394C47.4907 12.7332 47.333 12.0003 47.333 11.1406C47.333 10.4232 47.4134 9.73047 47.5742 9.0625C47.735 8.38835 47.9762 7.76367 48.2979 7.18848C48.6195 6.61328 49.0184 6.10921 49.4946 5.67627C49.9709 5.24333 50.5213 4.90625 51.146 4.66504C51.7769 4.42383 52.4819 4.30322 53.2612 4.30322C54.1209 4.30322 54.8507 4.46094 55.4507 4.77637C56.0568 5.0918 56.5176 5.55257 56.833 6.15869C57.1484 6.75863 57.3062 7.48844 57.3062 8.34814C57.3062 9.06559 57.2257 9.76139 57.0649 10.4355C56.9041 11.1035 56.6629 11.7251 56.3413 12.3003C56.0197 12.8755 55.6208 13.3796 55.1445 13.8125C54.6683 14.2454 54.1147 14.5825 53.4839 14.8237C52.8592 15.0649 52.1572 15.1855 51.3779 15.1855ZM51.7769 12.4951C51.9871 12.4951 52.1851 12.4147 52.3706 12.2539C52.5623 12.0931 52.7355 11.8735 52.8901 11.5952C53.0448 11.3107 53.1777 10.9891 53.2891 10.6304C53.4004 10.2655 53.487 9.87891 53.5488 9.4707C53.6107 9.0625 53.6416 8.6512 53.6416 8.23682C53.6416 7.96468 53.6076 7.73893 53.5396 7.55957C53.4777 7.37402 53.388 7.23486 53.2705 7.14209C53.153 7.04932 53.0107 7.00293 52.8438 7.00293C52.6335 7.00293 52.4325 7.08333 52.2407 7.24414C52.0552 7.40495 51.8851 7.62451 51.7305 7.90283C51.582 8.18115 51.4521 8.50277 51.3408 8.86768C51.2295 9.2264 51.1429 9.61296 51.0811 10.0273C51.0254 10.4355 50.9976 10.8468 50.9976 11.2612C50.9976 11.6694 51.0656 11.9787 51.2017 12.189C51.3377 12.3931 51.5295 12.4951 51.7769 12.4951ZM62.7891 15.1855C62.0778 15.1855 61.4253 15.0402 60.8315 14.7495C60.2378 14.4588 59.7616 13.998 59.4028 13.3672C59.0503 12.7363 58.874 11.9137 58.874 10.8994C58.874 10.1572 58.9575 9.45524 59.1245 8.79346C59.2977 8.13167 59.5451 7.52555 59.8667 6.9751C60.1883 6.42464 60.578 5.9515 61.0356 5.55566C61.4995 5.15365 62.0221 4.8444 62.6035 4.62793C63.1849 4.41146 63.8158 4.30322 64.4961 4.30322C65.1517 4.30322 65.7485 4.36507 66.2866 4.48877C66.8309 4.61247 67.369 4.79801 67.9009 5.04541L66.7598 7.70801C66.4443 7.56576 66.1011 7.43896 65.73 7.32764C65.3651 7.21012 65.0125 7.15137 64.6724 7.15137C64.3013 7.15137 63.9766 7.26888 63.6982 7.50391C63.4261 7.73275 63.2004 8.02962 63.021 8.39453C62.8416 8.75944 62.7056 9.146 62.6128 9.5542C62.5262 9.95622 62.4829 10.3273 62.4829 10.6675C62.4829 11.0757 62.5293 11.4004 62.6221 11.6416C62.7148 11.8766 62.8478 12.0467 63.021 12.1519C63.1942 12.2508 63.4014 12.3003 63.6426 12.3003C64.0879 12.3003 64.5177 12.2292 64.9321 12.0869C65.3527 11.9447 65.798 11.7498 66.2681 11.5024V14.3506C65.7733 14.6165 65.2537 14.8237 64.7095 14.9722C64.1652 15.1144 63.5251 15.1855 62.7891 15.1855ZM67.8823 15L70.8975 0.564453H74.4878L73.1982 6.71533C73.1488 6.94417 73.0869 7.19466 73.0127 7.4668C72.9385 7.73893 72.8643 7.99561 72.79 8.23682C72.722 8.47184 72.6602 8.66048 72.6045 8.80273H72.688L76.3154 4.48877H80.416L75.8608 9.23877L78.4028 15H74.3394L73.0498 11.3726L72.1128 11.8643L71.4727 15H67.8823ZM84.3311 15.1855C83.4466 15.1855 82.6951 15.0186 82.0767 14.6846C81.4582 14.3506 80.985 13.8743 80.6572 13.2559C80.3356 12.6312 80.1748 11.889 80.1748 11.0293C80.1748 10.1696 80.2954 9.33773 80.5366 8.53369C80.784 7.72965 81.1551 7.00911 81.6499 6.37207C82.1509 5.73503 82.7786 5.23096 83.5332 4.85986C84.2878 4.48877 85.1753 4.30322 86.1958 4.30322C87.3771 4.30322 88.3018 4.56917 88.9697 5.10107C89.6439 5.63298 89.981 6.34115 89.981 7.22559C89.981 7.80697 89.8696 8.33577 89.647 8.81201C89.4243 9.28206 89.0811 9.68717 88.6172 10.0273C88.1595 10.3675 87.575 10.6304 86.8638 10.8159C86.1525 10.9953 85.3083 11.085 84.3311 11.085H83.7837C83.7837 11.1097 83.7837 11.1344 83.7837 11.1592C83.7837 11.1777 83.7837 11.2025 83.7837 11.2334C83.7837 11.7035 83.9105 12.0498 84.1641 12.2725C84.4176 12.4951 84.798 12.6064 85.3052 12.6064C85.8371 12.6064 86.3411 12.526 86.8174 12.3652C87.2936 12.2044 87.8039 11.9818 88.3481 11.6973V14.2393C87.7853 14.5238 87.2039 14.7526 86.604 14.9258C86.0041 15.099 85.2464 15.1855 84.3311 15.1855ZM84.1455 8.83984H84.4146C84.9526 8.83984 85.3794 8.76872 85.6948 8.62646C86.0103 8.48421 86.236 8.30485 86.3721 8.08838C86.5081 7.87191 86.5762 7.65544 86.5762 7.43896C86.5762 7.24105 86.5143 7.07406 86.3906 6.93799C86.2669 6.80192 86.069 6.73389 85.7969 6.73389C85.5186 6.73389 85.2619 6.84212 85.0269 7.05859C84.7918 7.27507 84.597 7.5472 84.4424 7.875C84.2878 8.19661 84.1888 8.51823 84.1455 8.83984ZM94.2021 15.1855C93.2868 15.1855 92.591 14.9907 92.1147 14.6011C91.6447 14.2052 91.4097 13.5589 91.4097 12.6621C91.4097 12.4085 91.4313 12.1178 91.4746 11.79C91.5241 11.4622 91.5767 11.1715 91.6323 10.918L92.4116 7.18848H90.9829L91.3633 5.42578L93.3857 4.60938L94.6567 2.38281H97.0503L96.5957 4.48877H99.2676L98.6831 7.18848H96.002L95.2227 10.7417C95.1855 10.9211 95.1515 11.1035 95.1206 11.2891C95.0897 11.4684 95.0742 11.6107 95.0742 11.7158C95.0742 11.9261 95.1268 12.0776 95.2319 12.1704C95.3433 12.257 95.4855 12.3003 95.6587 12.3003C95.8937 12.3003 96.1597 12.2601 96.4565 12.1797C96.7534 12.0931 97.0534 11.988 97.3564 11.8643V14.564C96.9668 14.7557 96.5122 14.9072 95.9927 15.0186C95.4793 15.1299 94.8825 15.1855 94.2021 15.1855ZM102.672 15.1855C101.973 15.1855 101.349 15.1361 100.798 15.0371C100.254 14.9382 99.7778 14.7928 99.3696 14.6011V11.7158C99.9386 12.0251 100.467 12.2415 100.956 12.3652C101.445 12.4889 101.939 12.5508 102.44 12.5508C102.589 12.5508 102.762 12.5384 102.96 12.5137C103.158 12.4827 103.331 12.4209 103.479 12.3281C103.628 12.2354 103.702 12.0931 103.702 11.9014C103.702 11.7591 103.668 11.6323 103.6 11.521C103.538 11.4035 103.405 11.2736 103.201 11.1313C102.997 10.9829 102.682 10.7912 102.255 10.5562C101.822 10.3149 101.466 10.0521 101.188 9.76758C100.91 9.48307 100.702 9.16764 100.566 8.82129C100.437 8.46875 100.372 8.06982 100.372 7.62451C100.372 6.96273 100.526 6.38444 100.835 5.88965C101.145 5.38867 101.618 4.99902 102.255 4.7207C102.898 4.44238 103.708 4.30322 104.686 4.30322C105.372 4.30322 106.003 4.38672 106.578 4.55371C107.153 4.71452 107.707 4.95882 108.239 5.28662L107.116 7.62451C106.77 7.39567 106.374 7.19466 105.929 7.02148C105.49 6.84212 105.088 6.75244 104.723 6.75244C104.506 6.75244 104.333 6.80501 104.203 6.91016C104.079 7.0153 104.018 7.17301 104.018 7.3833C104.018 7.50081 104.058 7.60905 104.138 7.70801C104.225 7.80697 104.361 7.90902 104.546 8.01416C104.732 8.11312 104.97 8.23682 105.261 8.38525C105.737 8.62028 106.127 8.88623 106.43 9.18311C106.739 9.47998 106.968 9.80778 107.116 10.1665C107.271 10.5252 107.348 10.9211 107.348 11.354C107.348 12.2199 107.156 12.9373 106.773 13.5063C106.389 14.0692 105.848 14.4897 105.149 14.7681C104.451 15.0464 103.625 15.1855 102.672 15.1855Z" fill="#8D448B"/>
</svg>
